<svg width="48" height="48" viewBox="0 0 48 48" fill="none" xmlns="http://www.w3.org/2000/svg">
<g clip-path="url(#clip0_416_10200)">
<path d="M24 36.8434L26.1094 42.2604L24 46.0328H19.7812V38.2497C19.7812 37.4734 20.4112 36.8434 21.1875 36.8434H24Z" fill="#202020"/>
<path d="M28.2188 38.2497V46.0328H24V36.8434H26.8125C27.5887 36.8434 28.2188 37.4734 28.2188 38.2497Z" fill="black"/>
<path d="M24 14.2216L36.0178 28.2957L24 38.5947C17.3934 38.621 9.72938 39.3457 1.54407 41.4382L2.14407 9.78253C2.14407 9.78253 23.5547 14.261 24 14.2216Z" fill="white"/>
<path d="M46.7119 10.5934V41.4381C46.7119 41.4381 37.5919 38.5403 24 38.5947V14.2216C27.7556 13.885 45.5606 11.2638 46.7119 10.5934Z" fill="#DDDFE7"/>
<path d="M24 36.66L26.1094 38.4158L24 39.4725C16.4587 39.4725 9.00656 40.6772 1.84969 43.0528C1.42031 43.1953 0.949687 43.1231 0.583125 42.8587C0.216562 42.5944 0 42.1706 0 41.7187V9.84373C0 9.39186 0.216562 8.96717 0.583125 8.7028C0.949687 8.43842 1.42125 8.36623 1.84969 8.50873C5.66813 9.77717 9.62625 10.7222 13.6134 11.3175C14.3813 11.4328 14.9109 12.1481 14.7966 12.9159C14.6813 13.6847 13.9659 14.2144 13.1972 14.099C9.69094 13.575 6.20625 12.7922 2.8125 11.7647V39.7969C9.68719 37.7147 16.8047 36.66 24 36.66Z" fill="#3B3B3B"/>
<path d="M48 9.84373V41.7187C48 42.1706 47.7834 42.5944 47.4169 42.8587C47.0493 43.1241 46.5767 43.1958 46.1503 43.0528C38.9934 40.6772 31.5413 39.4725 24 39.4725V36.66C31.1953 36.66 38.3128 37.7147 45.1875 39.7969V11.7647C41.7891 12.7922 38.3062 13.5759 34.8066 14.0981C34.0387 14.2115 33.3234 13.6828 33.2081 12.915C33.0938 12.1472 33.6234 11.4309 34.3922 11.3165C38.37 10.7231 42.3262 9.77811 46.1503 8.50873C46.5797 8.36623 47.0503 8.43842 47.4169 8.7028C47.7834 8.96717 48 9.39186 48 9.84373Z" fill="#222222"/>
<path d="M35.723 6.69857C35.6861 6.63969 35.6339 6.59029 35.5698 6.55718L24.1248 0.645402C23.8967 0.527565 23.6255 0.527881 23.3977 0.646271L11.9514 6.59393C11.8876 6.62712 11.8356 6.67644 11.7988 6.73524L23.761 13.6051L35.723 6.69857Z" fill="#E4544D"/>
<path d="M35.7227 6.69855L23.7611 13.6052V0.556946C23.886 0.556946 24.0109 0.586188 24.1247 0.645462L35.5701 6.55708C35.6341 6.59027 35.6863 6.64006 35.7227 6.69855Z" fill="#DF0029"/>
<path d="M23.7611 12.8149L11.7989 6.73535C11.7603 6.79708 11.7385 6.86915 11.7385 6.94463V20.3997C11.7385 20.5495 11.8232 20.6864 11.9571 20.7532L23.4141 26.4738C23.5234 26.5283 23.6421 26.556 23.7612 26.5569L24.5515 19.3521L23.7611 12.8149Z" fill="#DF0029"/>
<path d="M35.723 6.69861L23.7611 12.8148V26.5569C23.8808 26.5579 24.0008 26.5316 24.1115 26.478L35.5606 20.9366C35.697 20.8706 35.7837 20.7325 35.7837 20.5809V6.90828C35.7836 6.83265 35.7617 6.76041 35.723 6.69861Z" fill="#CD0000"/>
<path d="M24 45.1872L27.4762 46.5934L24 47.9997H14.9531C14.1769 47.9997 13.5469 47.3697 13.5469 46.5934C13.5469 45.8172 14.1769 45.1872 14.9531 45.1872H24Z" fill="#3B3B3B"/>
<path d="M34.4531 46.5934C34.4531 47.3697 33.8231 47.9997 33.0469 47.9997H24V45.1872H33.0469C33.8231 45.1872 34.4531 45.8172 34.4531 46.5934Z" fill="#222222"/>
</g>
<defs>
<clipPath id="clip0_416_10200">
<rect width="48" height="48" fill="white"/>
</clipPath>
</defs>
</svg>
