<svg width="62" height="30" viewBox="0 0 62 30" fill="none" xmlns="http://www.w3.org/2000/svg">
<path d="M28.5503 7.08656C28.5063 7.01862 28.4441 6.96163 28.3678 6.92342L14.7441 0.10214C14.4726 -0.0338257 14.1499 -0.0334611 13.8786 0.103143L0.25344 6.96583C0.177426 7.00413 0.115523 7.06103 0.0717773 7.12887L14.3111 15.0557L28.5503 7.08656Z" fill="#F9F9F9"/>
<path d="M28.5498 7.08646L14.3112 15.0557V0C14.4599 0 14.6085 0.0337406 14.744 0.102134L28.3683 6.92323C28.4445 6.96153 28.5066 7.01898 28.5498 7.08646Z" fill="#F2F2F2"/>
<path d="M14.3112 14.1438L0.071875 7.12897C0.0259653 7.20019 0 7.28335 0 7.37044V22.8956C0 23.0684 0.100757 23.2263 0.260217 23.3035L13.8982 29.9041C14.0282 29.967 14.1696 29.999 14.3113 30L15.2521 21.6867L14.3112 14.1438Z" fill="white"/>
<path d="M28.5503 7.08655L14.3113 14.1437V30C14.4538 30.0011 14.5966 29.9708 14.7283 29.909L28.357 23.515C28.5194 23.4389 28.6225 23.2795 28.6225 23.1045V7.32848C28.6224 7.24121 28.5963 7.15786 28.5503 7.08655Z" fill="#ECECEC"/>
<path d="M61.9276 7.08656C61.8836 7.01862 61.8214 6.96163 61.7451 6.92342L48.1215 0.10214C47.8499 -0.0338257 47.5272 -0.0334611 47.2559 0.103143L33.6307 6.96583C33.5547 7.00413 33.4928 7.06103 33.4491 7.12887L47.6884 15.0557L61.9276 7.08656Z" fill="#3C3C3C"/>
<path d="M61.9274 7.08646L47.6888 15.0557V0C47.8374 0 47.9861 0.0337406 48.1215 0.102134L61.7458 6.92323C61.822 6.96153 61.8841 7.01898 61.9274 7.08646Z" fill="#212121"/>
<path d="M47.6888 14.1438L33.4494 7.12897C33.4035 7.20019 33.3775 7.28335 33.3775 7.37044V22.8956C33.3775 23.0684 33.4783 23.2263 33.6378 23.3035L47.2758 29.9041C47.4058 29.967 47.5472 29.999 47.6888 30L48.6296 21.6867L47.6888 14.1438Z" fill="#212121"/>
<path d="M61.9279 7.08655L47.6888 14.1437V30C47.8314 30.0011 47.9742 29.9708 48.1059 29.909L61.7345 23.515C61.8969 23.4389 62 23.2795 62 23.1045V7.32848C61.9999 7.24121 61.9739 7.15786 61.9279 7.08655Z" fill="#090909"/>
</svg>
