<svg width="48" height="48" viewBox="0 0 48 48" fill="none" xmlns="http://www.w3.org/2000/svg">
<circle cx="24" cy="24" r="24" fill="white"/>
<path d="M24 20.6613C22.1561 20.6613 20.6613 22.1561 20.6613 24C20.6613 25.8439 22.1561 27.3387 24 27.3387C25.8439 27.3387 27.3387 25.8439 27.3387 24C27.3387 22.1561 25.8439 20.6613 24 20.6613Z" fill="#DF0029"/>
<path fill-rule="evenodd" clip-rule="evenodd" d="M15 23.7097C15 20.0809 15 18.2665 15.9241 16.9946C16.2226 16.5838 16.5838 16.2226 16.9946 15.9241C18.2665 15 20.0809 15 23.7097 15H24.2903C27.9191 15 29.7335 15 31.0054 15.9241C31.4162 16.2226 31.7774 16.5838 32.0759 16.9946C33 18.2665 33 20.0809 33 23.7097V24.2903C33 27.9191 33 29.7335 32.0759 31.0054C31.7774 31.4162 31.4162 31.7774 31.0054 32.0759C29.7335 33 27.9191 33 24.2903 33H23.7097C20.0809 33 18.2665 33 16.9946 32.0759C16.5838 31.7774 16.2226 31.4162 15.9241 31.0054C15 29.7335 15 27.9191 15 24.2903V23.7097ZM19.0161 24C19.0161 21.2475 21.2475 19.0161 24 19.0161C26.7525 19.0161 28.9839 21.2475 28.9839 24C28.9839 26.7525 26.7525 28.9839 24 28.9839C21.2475 28.9839 19.0161 26.7525 19.0161 24ZM29.2863 17.6129C28.665 17.6129 28.1613 18.1166 28.1613 18.7379C28.1613 19.3592 28.665 19.8629 29.2863 19.8629C29.9076 19.8629 30.4113 19.3592 30.4113 18.7379C30.4113 18.1166 29.9076 17.6129 29.2863 17.6129Z" fill="#DF0029"/>
</svg>
