<svg width="48" height="48" viewBox="0 0 48 48" fill="none" xmlns="http://www.w3.org/2000/svg">
<circle cx="24" cy="24" r="24" fill="white"/>
<g clip-path="url(#clip0_295_1959)">
<path d="M31.2 15H16.8C15.81 15 15 15.81 15 16.8V31.2C15 32.19 15.81 33 16.8 33H31.2C32.19 33 33 32.19 33 31.2V16.8C33 15.81 32.19 15 31.2 15ZM20.4 30.3H17.7V22.2H20.4V30.3ZM19.05 20.67C18.15 20.67 17.43 19.95 17.43 19.05C17.43 18.15 18.15 17.43 19.05 17.43C19.95 17.43 20.67 18.15 20.67 19.05C20.67 19.95 19.95 20.67 19.05 20.67ZM30.3 30.3H27.6V25.53C27.6 24.81 26.97 24.18 26.25 24.18C25.53 24.18 24.9 24.81 24.9 25.53V30.3H22.2V22.2H24.9V23.28C25.35 22.56 26.34 22.02 27.15 22.02C28.86 22.02 30.3 23.46 30.3 25.17V30.3Z" fill="#DF0029"/>
</g>
<defs>
<clipPath id="clip0_295_1959">
<rect width="18" height="18" fill="white" transform="translate(15 15)"/>
</clipPath>
</defs>
</svg>
