<svg width="46" height="32" viewBox="0 0 46 32" fill="none" xmlns="http://www.w3.org/2000/svg">
<path fill-rule="evenodd" clip-rule="evenodd" d="M19.743 0.528566C13.4669 0.528566 8.34303 5.65244 8.34303 11.9286V11.9408C8.34303 12.0446 8.36746 12.1484 8.37153 12.2522C3.78099 13.0462 0.200012 16.8896 0.200012 21.7C0.200012 27.0762 4.59512 31.4715 9.97144 31.4715H37.6572C42.1358 31.4715 45.8 27.8072 45.8 23.3286C45.8 19.4119 42.9419 16.2729 39.2451 15.5073C39.2491 15.4014 39.2858 15.3017 39.2858 15.1958V15.1918V15.1897V15.1857C39.2858 10.7071 35.6215 7.0428 31.1429 7.0428H31.1307C30.7378 7.04687 30.3653 7.17716 29.9785 7.23619C28.1383 3.24007 24.228 0.528566 19.743 0.528566Z" fill="#DF0029"/>
</svg>
