<svg width="48" height="48" viewBox="0 0 48 48" fill="none" xmlns="http://www.w3.org/2000/svg">
<circle cx="24" cy="24" r="24" fill="white"/>
<g clip-path="url(#clip0_323_5014)">
<path d="M32.0099 15.9901C31.35 15.3301 30.5549 15 29.6253 15H18.3752C17.4456 15 16.6506 15.3301 15.9904 15.9901C15.3303 16.6503 15.0002 17.4453 15.0002 18.375V29.6249C15.0002 30.5545 15.3303 31.3496 15.9904 32.0098C16.6506 32.67 17.4456 33 18.3752 33H29.6252C30.5548 33 31.3498 32.67 32.0097 32.0098C32.6699 31.3496 33 30.5545 33 29.6249V18.375C33 17.4453 32.6699 16.6502 32.0099 15.9901ZM20.1097 27.0116H17.9417C17.8166 27.0116 17.7229 26.9606 17.6605 26.8589C17.5901 26.7496 17.5901 26.6403 17.6605 26.5309L19.9574 22.4765V22.4648L18.4924 19.9333C18.43 19.8005 18.4261 19.6872 18.4808 19.5935C18.5432 19.5077 18.6448 19.4646 18.7854 19.4646H20.9416C21.1837 19.4646 21.3869 19.5975 21.551 19.8632C22.5353 21.5897 23.0275 22.4568 23.0275 22.4648L20.6957 26.5894C20.5473 26.8707 20.352 27.0116 20.1097 27.0116ZM30.3399 16.9688L25.5469 25.4413V25.4531L28.594 31.031C28.6641 31.1481 28.6683 31.2577 28.6055 31.3591C28.551 31.4528 28.4534 31.4999 28.3128 31.4999H26.1565C25.9065 31.4999 25.7034 31.3631 25.5472 31.0897C23.5081 27.3476 22.4847 25.4686 22.477 25.453L27.2933 16.9098C27.4418 16.6362 27.6331 16.4996 27.8674 16.4996H30.059C30.1915 16.4996 30.2851 16.5465 30.3402 16.6403C30.4026 16.7342 30.4026 16.8436 30.3399 16.9688Z" fill="#DF0029"/>
</g>
<defs>
<clipPath id="clip0_323_5014">
<rect width="18" height="18" fill="white" transform="translate(15 15)"/>
</clipPath>
</defs>
</svg>
