<svg width="162" height="40" viewBox="0 0 162 40" fill="none" xmlns="http://www.w3.org/2000/svg">
<g clip-path="url(#clip0_2051_1371)">
<path d="M18.81 0H0V39.9633H18.81V0Z" fill="#DF0029"/>
<path d="M162 0H106.392V15.0909H124.789V40H143.603V15.0909H162V0Z" fill="#DF0029"/>
<path d="M98.5268 39.96C98.5268 32.222 98.5213 24.4819 98.5102 16.7395C98.5268 15.3079 98.5102 14.0697 98.4902 13.1186C98.4835 11.6941 98.3723 10.2719 98.1573 8.86367C98.0394 8.00609 97.8158 7.16648 97.4916 6.36409C97.2409 5.73874 96.9121 5.14778 96.513 4.60537C96.1508 4.12552 95.7304 3.69279 95.2615 3.3172C93.9762 2.32446 92.5458 1.5365 91.0208 0.981145C89.4159 0.405814 87.7314 0.0849218 86.0279 0.030035C83.1739 -0.0345994 80.3463 0.590263 77.7839 1.85185C75.2214 3.11344 72.9994 4.97472 71.3055 7.27849C71.221 6.97172 71.1199 6.66981 71.0026 6.3741C70.7504 5.74943 70.4217 5.15866 70.024 4.61538C69.6618 4.13553 69.2413 3.7028 68.7724 3.32722C67.4871 2.33447 66.0567 1.54651 64.5317 0.991156C62.9269 0.415825 61.2423 0.0949335 59.5388 0.0400467C56.6741 -0.0454917 53.832 0.573207 51.2606 1.84215C49.071 2.90949 47.1138 4.40099 45.5021 6.2306V0H26.6921V39.9633H45.5021V16.6261C45.5021 16.576 45.5021 16.5326 45.5021 16.4826C45.5021 14.0798 47.2496 12.1442 49.4032 12.1442C51.5568 12.1442 53.301 14.0931 53.301 16.4826C53.301 16.5326 53.301 16.576 53.301 16.6261V39.9633H72.111V16.6261C72.111 16.576 72.111 16.5326 72.111 16.4826C72.111 14.0798 73.8585 12.1442 76.0121 12.1442C78.1657 12.1442 79.9099 14.0931 79.9099 16.4826C79.9099 16.5326 79.9099 16.576 79.9099 16.6261V39.96H98.5268Z" fill="#DF0029"/>
</g>
<defs>
<clipPath id="clip0_2051_1371">
<rect width="162" height="40" fill="white"/>
</clipPath>
</defs>
</svg>
